<mxfile host="app.diagrams.net" agent="Mozilla/5.0 (Windows NT 10.0; Win64; x64) AppleWebKit/537.36 (KHTML, like Gecko) Chrome/141.0.0.0 Safari/537.36" version="28.2.7">
  <diagram name="Page-1" id="cYklUufRV7_RJt6CJc2l">
    <mxGraphModel dx="1489" dy="1972" grid="1" gridSize="10" guides="1" tooltips="1" connect="1" arrows="1" fold="1" page="1" pageScale="1" pageWidth="827" pageHeight="1169" math="0" shadow="0">
      <root>
        <mxCell id="0" />
        <mxCell id="1" parent="0" />
        <mxCell id="2PFfYWBJliuFD6CgrCCJ-9" style="edgeStyle=orthogonalEdgeStyle;rounded=0;orthogonalLoop=1;jettySize=auto;html=1;entryX=0.5;entryY=0;entryDx=0;entryDy=0;" edge="1" parent="1" source="2PFfYWBJliuFD6CgrCCJ-1" target="2PFfYWBJliuFD6CgrCCJ-4">
          <mxGeometry relative="1" as="geometry" />
        </mxCell>
        <mxCell id="2PFfYWBJliuFD6CgrCCJ-1" value="Start" style="strokeWidth=2;html=1;shape=mxgraph.flowchart.start_1;whiteSpace=wrap;" vertex="1" parent="1">
          <mxGeometry x="364" width="100" height="60" as="geometry" />
        </mxCell>
        <mxCell id="2PFfYWBJliuFD6CgrCCJ-13" style="edgeStyle=orthogonalEdgeStyle;rounded=0;orthogonalLoop=1;jettySize=auto;html=1;entryX=0;entryY=0.5;entryDx=0;entryDy=0;" edge="1" parent="1" source="2PFfYWBJliuFD6CgrCCJ-3" target="2PFfYWBJliuFD6CgrCCJ-6">
          <mxGeometry relative="1" as="geometry" />
        </mxCell>
        <mxCell id="2PFfYWBJliuFD6CgrCCJ-35" style="edgeStyle=orthogonalEdgeStyle;rounded=0;orthogonalLoop=1;jettySize=auto;html=1;entryX=0.5;entryY=0;entryDx=0;entryDy=0;" edge="1" parent="1" source="2PFfYWBJliuFD6CgrCCJ-3" target="2PFfYWBJliuFD6CgrCCJ-31">
          <mxGeometry relative="1" as="geometry" />
        </mxCell>
        <mxCell id="2PFfYWBJliuFD6CgrCCJ-41" style="edgeStyle=orthogonalEdgeStyle;rounded=0;orthogonalLoop=1;jettySize=auto;html=1;entryX=1;entryY=0.5;entryDx=0;entryDy=0;" edge="1" parent="1" source="2PFfYWBJliuFD6CgrCCJ-3" target="2PFfYWBJliuFD6CgrCCJ-40">
          <mxGeometry relative="1" as="geometry" />
        </mxCell>
        <mxCell id="2PFfYWBJliuFD6CgrCCJ-3" value="A = Add items&lt;div&gt;D = Delete Item&lt;/div&gt;&lt;div&gt;V = View list&lt;/div&gt;" style="strokeWidth=2;html=1;shape=mxgraph.flowchart.decision;whiteSpace=wrap;" vertex="1" parent="1">
          <mxGeometry x="331" y="245" width="166" height="170" as="geometry" />
        </mxCell>
        <mxCell id="2PFfYWBJliuFD6CgrCCJ-4" value="&lt;div&gt;user_list&lt;/div&gt;" style="shape=parallelogram;perimeter=parallelogramPerimeter;whiteSpace=wrap;html=1;fixedSize=1;" vertex="1" parent="1">
          <mxGeometry x="336" y="100" width="156" height="90" as="geometry" />
        </mxCell>
        <mxCell id="2PFfYWBJliuFD6CgrCCJ-17" style="edgeStyle=orthogonalEdgeStyle;rounded=0;orthogonalLoop=1;jettySize=auto;html=1;entryX=0.5;entryY=0;entryDx=0;entryDy=0;" edge="1" parent="1" source="2PFfYWBJliuFD6CgrCCJ-6">
          <mxGeometry relative="1" as="geometry">
            <mxPoint x="640" y="415" as="targetPoint" />
          </mxGeometry>
        </mxCell>
        <mxCell id="2PFfYWBJliuFD6CgrCCJ-6" value="&lt;b&gt;Order item to be added&lt;/b&gt;" style="rounded=0;whiteSpace=wrap;html=1;" vertex="1" parent="1">
          <mxGeometry x="580" y="300" width="120" height="60" as="geometry" />
        </mxCell>
        <mxCell id="2PFfYWBJliuFD6CgrCCJ-10" style="edgeStyle=orthogonalEdgeStyle;rounded=0;orthogonalLoop=1;jettySize=auto;html=1;entryX=0.5;entryY=0;entryDx=0;entryDy=0;entryPerimeter=0;" edge="1" parent="1" source="2PFfYWBJliuFD6CgrCCJ-4" target="2PFfYWBJliuFD6CgrCCJ-3">
          <mxGeometry relative="1" as="geometry" />
        </mxCell>
        <mxCell id="2PFfYWBJliuFD6CgrCCJ-18" style="edgeStyle=orthogonalEdgeStyle;rounded=0;orthogonalLoop=1;jettySize=auto;html=1;" edge="1" parent="1" target="2PFfYWBJliuFD6CgrCCJ-19">
          <mxGeometry relative="1" as="geometry">
            <mxPoint x="640" y="565" as="targetPoint" />
            <mxPoint x="640" y="495" as="sourcePoint" />
          </mxGeometry>
        </mxCell>
        <mxCell id="2PFfYWBJliuFD6CgrCCJ-12" value="&lt;font style=&quot;font-size: 10px;&quot;&gt;input(&quot;Item to be Added: &quot;)&lt;/font&gt;" style="text;html=1;whiteSpace=wrap;strokeColor=none;fillColor=none;align=center;verticalAlign=middle;rounded=0;" vertex="1" parent="1">
          <mxGeometry x="560" y="330" width="170" height="30" as="geometry" />
        </mxCell>
        <mxCell id="2PFfYWBJliuFD6CgrCCJ-14" value="&lt;font style=&quot;font-size: 20px;&quot;&gt;A&lt;/font&gt;" style="text;html=1;whiteSpace=wrap;strokeColor=none;fillColor=none;align=center;verticalAlign=middle;rounded=0;" vertex="1" parent="1">
          <mxGeometry x="510" y="300" width="60" height="30" as="geometry" />
        </mxCell>
        <mxCell id="2PFfYWBJliuFD6CgrCCJ-21" value="" style="edgeStyle=orthogonalEdgeStyle;rounded=0;orthogonalLoop=1;jettySize=auto;html=1;" edge="1" parent="1" source="2PFfYWBJliuFD6CgrCCJ-19" target="2PFfYWBJliuFD6CgrCCJ-20">
          <mxGeometry relative="1" as="geometry" />
        </mxCell>
        <mxCell id="2PFfYWBJliuFD6CgrCCJ-19" value="&lt;div&gt;&lt;b&gt;Add item to the list&lt;/b&gt;&lt;/div&gt;list.append(item_to_be_added)" style="rounded=0;whiteSpace=wrap;html=1;" vertex="1" parent="1">
          <mxGeometry x="550" y="540" width="180" height="90" as="geometry" />
        </mxCell>
        <mxCell id="2PFfYWBJliuFD6CgrCCJ-20" value="&lt;b&gt;Confirm action to the user&lt;/b&gt;&lt;div&gt;print( f&quot;{item_to_be_added} was added to {user_list} &quot;&lt;/div&gt;" style="rounded=0;whiteSpace=wrap;html=1;" vertex="1" parent="1">
          <mxGeometry x="550" y="660" width="180" height="90" as="geometry" />
        </mxCell>
        <mxCell id="2PFfYWBJliuFD6CgrCCJ-24" value="&lt;h1&gt;Flowchart&amp;nbsp; of Groceries List (All commands)&lt;/h1&gt;" style="text;html=1;whiteSpace=wrap;strokeColor=none;fillColor=none;align=center;verticalAlign=middle;rounded=0;" vertex="1" parent="1">
          <mxGeometry x="250" y="-60" width="350" height="30" as="geometry" />
        </mxCell>
        <mxCell id="2PFfYWBJliuFD6CgrCCJ-27" value="item_to_be_added" style="shape=parallelogram;perimeter=parallelogramPerimeter;whiteSpace=wrap;html=1;fixedSize=1;" vertex="1" parent="1">
          <mxGeometry x="570" y="415" width="140" height="90" as="geometry" />
        </mxCell>
        <mxCell id="2PFfYWBJliuFD6CgrCCJ-37" style="edgeStyle=orthogonalEdgeStyle;rounded=0;orthogonalLoop=1;jettySize=auto;html=1;" edge="1" parent="1" source="2PFfYWBJliuFD6CgrCCJ-31" target="2PFfYWBJliuFD6CgrCCJ-32">
          <mxGeometry relative="1" as="geometry" />
        </mxCell>
        <mxCell id="2PFfYWBJliuFD6CgrCCJ-31" value="&lt;b&gt;Delete Item&lt;/b&gt;" style="rounded=0;whiteSpace=wrap;html=1;" vertex="1" parent="1">
          <mxGeometry x="354" y="470" width="120" height="60" as="geometry" />
        </mxCell>
        <mxCell id="2PFfYWBJliuFD6CgrCCJ-38" style="edgeStyle=orthogonalEdgeStyle;rounded=0;orthogonalLoop=1;jettySize=auto;html=1;entryX=0.5;entryY=0;entryDx=0;entryDy=0;" edge="1" parent="1" source="2PFfYWBJliuFD6CgrCCJ-32" target="2PFfYWBJliuFD6CgrCCJ-33">
          <mxGeometry relative="1" as="geometry" />
        </mxCell>
        <mxCell id="2PFfYWBJliuFD6CgrCCJ-32" value="&lt;b&gt;item_to_be_deleted&lt;/b&gt;" style="shape=parallelogram;perimeter=parallelogramPerimeter;whiteSpace=wrap;html=1;fixedSize=1;" vertex="1" parent="1">
          <mxGeometry x="344" y="570" width="140" height="90" as="geometry" />
        </mxCell>
        <mxCell id="2PFfYWBJliuFD6CgrCCJ-39" style="edgeStyle=orthogonalEdgeStyle;rounded=0;orthogonalLoop=1;jettySize=auto;html=1;entryX=0.5;entryY=0;entryDx=0;entryDy=0;" edge="1" parent="1" source="2PFfYWBJliuFD6CgrCCJ-33" target="2PFfYWBJliuFD6CgrCCJ-34">
          <mxGeometry relative="1" as="geometry" />
        </mxCell>
        <mxCell id="2PFfYWBJliuFD6CgrCCJ-33" value="&lt;b&gt;Delete item from the list&lt;/b&gt;" style="rounded=0;whiteSpace=wrap;html=1;" vertex="1" parent="1">
          <mxGeometry x="324" y="700" width="180" height="90" as="geometry" />
        </mxCell>
        <mxCell id="2PFfYWBJliuFD6CgrCCJ-34" value="&lt;b&gt;Confirm action to the user&lt;/b&gt;" style="rounded=0;whiteSpace=wrap;html=1;" vertex="1" parent="1">
          <mxGeometry x="324" y="830" width="180" height="90" as="geometry" />
        </mxCell>
        <mxCell id="2PFfYWBJliuFD6CgrCCJ-36" value="&lt;font style=&quot;font-size: 20px;&quot;&gt;B&lt;/font&gt;" style="text;html=1;whiteSpace=wrap;strokeColor=none;fillColor=none;align=center;verticalAlign=middle;rounded=0;" vertex="1" parent="1">
          <mxGeometry x="395" y="430" width="60" height="30" as="geometry" />
        </mxCell>
        <mxCell id="2PFfYWBJliuFD6CgrCCJ-40" value="&lt;b&gt;Show enumerated list&lt;/b&gt;" style="rounded=0;whiteSpace=wrap;html=1;" vertex="1" parent="1">
          <mxGeometry x="160" y="300" width="120" height="60" as="geometry" />
        </mxCell>
        <mxCell id="2PFfYWBJliuFD6CgrCCJ-42" value="&lt;font style=&quot;font-size: 20px;&quot;&gt;V&lt;/font&gt;" style="text;html=1;whiteSpace=wrap;strokeColor=none;fillColor=none;align=center;verticalAlign=middle;rounded=0;" vertex="1" parent="1">
          <mxGeometry x="280" y="300" width="60" height="30" as="geometry" />
        </mxCell>
        <mxCell id="2PFfYWBJliuFD6CgrCCJ-45" value="&lt;font style=&quot;font-size: 8px;&quot;&gt;int(input(&quot;item to be deleted: &quot;))&lt;/font&gt;" style="text;html=1;whiteSpace=wrap;strokeColor=none;fillColor=none;align=center;verticalAlign=middle;rounded=0;" vertex="1" parent="1">
          <mxGeometry x="314" y="510" width="200" height="10" as="geometry" />
        </mxCell>
        <mxCell id="2PFfYWBJliuFD6CgrCCJ-49" value="Break or Continue?" style="strokeWidth=2;html=1;shape=mxgraph.flowchart.decision;whiteSpace=wrap;" vertex="1" parent="1">
          <mxGeometry x="331" y="990" width="166" height="170" as="geometry" />
        </mxCell>
        <mxCell id="2PFfYWBJliuFD6CgrCCJ-50" style="edgeStyle=orthogonalEdgeStyle;rounded=0;orthogonalLoop=1;jettySize=auto;html=1;entryX=0.5;entryY=0;entryDx=0;entryDy=0;entryPerimeter=0;" edge="1" parent="1" source="2PFfYWBJliuFD6CgrCCJ-34" target="2PFfYWBJliuFD6CgrCCJ-49">
          <mxGeometry relative="1" as="geometry" />
        </mxCell>
        <mxCell id="2PFfYWBJliuFD6CgrCCJ-53" style="edgeStyle=orthogonalEdgeStyle;rounded=0;orthogonalLoop=1;jettySize=auto;html=1;entryX=1;entryY=0.5;entryDx=0;entryDy=0;entryPerimeter=0;" edge="1" parent="1" source="2PFfYWBJliuFD6CgrCCJ-20" target="2PFfYWBJliuFD6CgrCCJ-49">
          <mxGeometry relative="1" as="geometry">
            <Array as="points">
              <mxPoint x="640" y="1075" />
            </Array>
          </mxGeometry>
        </mxCell>
        <mxCell id="2PFfYWBJliuFD6CgrCCJ-55" style="edgeStyle=orthogonalEdgeStyle;rounded=0;orthogonalLoop=1;jettySize=auto;html=1;entryX=0;entryY=0.5;entryDx=0;entryDy=0;entryPerimeter=0;" edge="1" parent="1" source="2PFfYWBJliuFD6CgrCCJ-40" target="2PFfYWBJliuFD6CgrCCJ-49">
          <mxGeometry relative="1" as="geometry">
            <Array as="points">
              <mxPoint x="220" y="1075" />
            </Array>
          </mxGeometry>
        </mxCell>
      </root>
    </mxGraphModel>
  </diagram>
</mxfile>
